# xmcd
#
# Track frame offsets:
#	150
#	13549
#	23401
#	33934
#	49067
#	61212
#	79557
#	92731
#	107005
#	118467
#	131043
#	139151
#	152429
#	168442
#	181647
#
# Disc length: 2620 seconds
#
# Revision: 0
# Processed by: cddbd v1.5.1PL2 Copyright (c) Steve Scherf et al.
# Submitted via: dBpowerAMP V4.0
#
DISCID=b30a3a0f
DTITLE=Various Artist - Glory Land [CD1 )
DYEAR=2006
DGENRE=Bluegrass
TTITLE0=Somebody Touched Me - The Stanley Brothers
TTITLE1=Drifting Too Far From The Shore - Ricky Skaggs And John Starling
TTITLE2=Shine Hallelujah Shine - Don Reno And Red Smiley
TTITLE3=Where You There? - The Seldom Scene
TTITLE4=Rank Stranger - Ralph Stanley
TTITLE5=Blessed Assurance - Forbes Family
TTITLE6=I'm Using My Bible For A Road Map - The Country Gentlemen
TTITLE7=The Old Rugged Cross - Larry Sparks
TTITLE8=Down Home Gospel Medley - Buck White And The Down Home Folks 
TTITLE9=Just A Closer Walk With Thee - Cliff Waldron
TTITLE10=Some Day - Blue Highway
TTITLE11=They're Holding Up The Ladder - Easter Brothers
TTITLE12=Beulah Land - Paul Williams
TTITLE13=Little Black Train - IIIrd Tyme Out
TTITLE14=Gloryland - Marshall Family
EXTD=
EXTT0=
EXTT1=
EXTT2=
EXTT3=
EXTT4=
EXTT5=
EXTT6=
EXTT7=
EXTT8=
EXTT9=
EXTT10=
EXTT11=
EXTT12=
EXTT13=
EXTT14=
PLAYORDER=
